<svg xmlns="http://www.w3.org/2000/svg" viewBox="0 0 32 32" fill="currentColor" stroke="none"><path d="M16.02 3C9.4 3 4 8.36 4 15c0 2.3.65 4.44 1.77 6.27L4 29l7.94-1.72A11.9 11.9 0 0 0 16.02 27C22.63 27 28 21.64 28 15S22.63 3 16.02 3zm0 21.7c-1.94 0-3.75-.55-5.29-1.5l-.38-.23-4.7 1.02 1.03-4.6-.25-.4A9.62 9.62 0 0 1 6.3 15c0-5.36 4.36-9.7 9.72-9.7 5.35 0 9.7 4.34 9.7 9.7s-4.35 9.7-9.7 9.7zm5.34-7.27c-.29-.15-1.73-.85-2-.95-.27-.1-.46-.15-.66.15-.2.29-.76.95-.93 1.14-.17.2-.34.22-.63.07-.29-.15-1.22-.45-2.32-1.43-.86-.76-1.44-1.71-1.61-2-.17-.29-.02-.45.13-.6.13-.13.29-.34.44-.51.15-.17.2-.29.29-.49.1-.2.05-.37-.02-.51-.07-.15-.66-1.59-.9-2.18-.24-.57-.48-.49-.66-.5h-.56c-.2 0-.51.07-.78.37-.27.29-1.02 1-1.02 2.44s1.05 2.83 1.2 3.03c.15.2 2.07 3.16 5.02 4.43.7.3 1.25.48 1.68.61.7.22 1.34.19 1.84.12.56-.08 1.73-.71 1.98-1.39.24-.68.24-1.27.17-1.39-.07-.12-.26-.2-.55-.34z"/></svg>
